<svg width="28" height="31" viewBox="0 0 28 31" fill="none" xmlns="http://www.w3.org/2000/svg">
<path d="M25.8454 0.649414H1.23075C0.553829 0.649414 0 1.09593 0 1.64169V29.425C0 29.9708 0.553829 30.4173 1.23075 30.4173H25.8453C26.5223 30.4173 27.0761 29.9708 27.0761 29.425V1.64169C27.0761 1.09593 26.5223 0.649414 25.8454 0.649414ZM25.8454 29.4249H1.23075V1.64169H25.8453V29.4249H25.8454Z" fill="url(#paint0_linear_3_1759)"/>
<path d="M10.2777 6.95003L11.0777 6.30508V8.58726C11.0777 8.88494 11.3238 9.08337 11.693 9.08337C12.0622 9.08337 12.3083 8.88494 12.3083 8.58726V5.3128L13.5392 4.32058L14.7699 5.31286V8.58732C14.7699 8.88499 15.0161 9.08343 15.3853 9.08343C15.7545 9.08343 16.0006 8.88499 16.0006 8.58732V6.30508L16.8006 6.95003C16.9237 7.04927 17.0467 7.09887 17.2313 7.09887C17.4159 7.09887 17.539 7.04927 17.662 6.95003C17.9081 6.75159 17.9081 6.45392 17.662 6.25543L15.9212 4.85192C15.8715 4.77988 15.8 4.72215 15.7106 4.68209L13.9698 3.27859C13.7236 3.08015 13.3544 3.08015 13.1082 3.27859L11.3674 4.68209C11.2781 4.72215 11.2065 4.77983 11.1568 4.85186L9.41604 6.25537C9.16991 6.4538 9.16991 6.75148 9.41604 6.94997C9.66216 7.14846 10.0316 7.14852 10.2777 6.95003Z" fill="url(#paint1_linear_3_1759)"/>
<path d="M4.30772 13.5486H12.9229C13.2921 13.5486 13.5382 13.3502 13.5382 13.0525C13.5382 12.7548 13.2921 12.5564 12.9229 12.5564H4.30772C3.9385 12.5564 3.69238 12.7548 3.69238 13.0525C3.69238 13.3501 3.9385 13.5486 4.30772 13.5486Z" fill="url(#paint2_linear_3_1759)"/>
<path d="M4.30772 15.5324H10.4614C10.8306 15.5324 11.0767 15.3339 11.0767 15.0363C11.0767 14.7386 10.8306 14.5402 10.4614 14.5402H4.30772C3.9385 14.5402 3.69238 14.7386 3.69238 15.0363C3.69238 15.3339 3.9385 15.5324 4.30772 15.5324Z" fill="url(#paint3_linear_3_1759)"/>
<path d="M4.30772 21.4861H10.4614C10.8306 21.4861 11.0767 21.2877 11.0767 20.99C11.0767 20.6923 10.8306 20.4939 10.4614 20.4939H4.30772C3.9385 20.4939 3.69238 20.6923 3.69238 20.99C3.69238 21.2877 3.9385 21.4861 4.30772 21.4861Z" fill="url(#paint4_linear_3_1759)"/>
<path d="M16.1865 13.2007C15.9404 13.3991 15.9404 13.6968 16.1865 13.8953L18.0326 15.3837C18.1557 15.4829 18.2788 15.5325 18.4634 15.5325C18.7095 15.5325 18.8326 15.4333 18.9557 15.3837L22.0325 11.9108C22.2787 11.6627 22.1556 11.365 21.9094 11.2162C21.6017 11.0178 21.2325 11.117 21.0479 11.3154L18.4019 14.2922L17.0481 13.2008C16.802 13.0023 16.4327 13.0023 16.1865 13.2007Z" fill="url(#paint5_linear_3_1759)"/>
<path d="M4.30772 19.5015H12.9229C13.2921 19.5015 13.5382 19.3031 13.5382 19.0054C13.5382 18.7077 13.2921 18.5093 12.9229 18.5093H4.30772C3.9385 18.5093 3.69238 18.7077 3.69238 19.0054C3.69238 19.3031 3.9385 19.5015 4.30772 19.5015Z" fill="url(#paint6_linear_3_1759)"/>
<path d="M21.9095 17.1698C21.6018 16.9714 21.2325 17.0706 21.0479 17.2691L18.4019 20.2458L17.0481 19.1544C16.802 18.9559 16.4328 18.9559 16.1866 19.1544C15.9404 19.3528 15.9404 19.6505 16.1866 19.849L18.0327 21.3374C18.1558 21.4366 18.2788 21.4862 18.4634 21.4862C18.7095 21.4862 18.8326 21.387 18.9557 21.3374L22.0326 17.8645C22.2787 17.6163 22.1557 17.3187 21.9095 17.1698Z" fill="url(#paint7_linear_3_1759)"/>
<path d="M4.30772 25.4552H12.9229C13.2921 25.4552 13.5382 25.2568 13.5382 24.9591C13.5382 24.6614 13.2921 24.463 12.9229 24.463H4.30772C3.9385 24.463 3.69238 24.6614 3.69238 24.9591C3.69238 25.2568 3.9385 25.4552 4.30772 25.4552Z" fill="url(#paint8_linear_3_1759)"/>
<path d="M4.30772 27.4397H10.4614C10.8306 27.4397 11.0767 27.2413 11.0767 26.9436C11.0767 26.6459 10.8306 26.4475 10.4614 26.4475H4.30772C3.9385 26.4475 3.69238 26.6459 3.69238 26.9436C3.69238 27.2413 3.9385 27.4397 4.30772 27.4397Z" fill="url(#paint9_linear_3_1759)"/>
<path d="M21.3534 24.1156C21.1073 23.9172 20.7381 23.9172 20.4919 24.1156L19.3843 25.0087L18.2766 24.1156C18.0305 23.9172 17.6613 23.9172 17.4151 24.1156C17.1689 24.3141 17.1689 24.6117 17.4151 24.8102L18.5227 25.7033L17.4151 26.5963C17.1689 26.7947 17.1689 27.0924 17.4151 27.2909C17.5382 27.3901 17.6612 27.4397 17.8458 27.4397C18.0304 27.4397 18.1535 27.3901 18.2765 27.2909L19.3842 26.3979L20.4918 27.2909C20.6149 27.3901 20.738 27.4397 20.9226 27.4397C21.1072 27.4397 21.2303 27.3901 21.3533 27.2909C21.5994 27.0925 21.5994 26.7948 21.3533 26.5963L20.2456 25.7033L21.3533 24.8102C21.5996 24.6117 21.5996 24.3141 21.3534 24.1156Z" fill="url(#paint10_linear_3_1759)"/>
<defs>
<linearGradient id="paint0_linear_3_1759" x1="26.7241" y1="1.36931" x2="-4.09933" y2="9.63275" gradientUnits="userSpaceOnUse">
<stop stop-color="#FFC000"/>
<stop offset="1" stop-color="#FF8A00"/>
</linearGradient>
<linearGradient id="paint1_linear_3_1759" x1="17.7346" y1="3.27374" x2="8.84016" y2="7.06725" gradientUnits="userSpaceOnUse">
<stop stop-color="#FFC000"/>
<stop offset="1" stop-color="#FF8A00"/>
</linearGradient>
<linearGradient id="paint2_linear_3_1759" x1="13.4102" y1="12.5804" x2="12.1527" y2="16.2582" gradientUnits="userSpaceOnUse">
<stop stop-color="#FFC000"/>
<stop offset="1" stop-color="#FF8A00"/>
</linearGradient>
<linearGradient id="paint3_linear_3_1759" x1="10.9807" y1="14.5642" x2="9.43026" y2="17.9651" gradientUnits="userSpaceOnUse">
<stop stop-color="#FFC000"/>
<stop offset="1" stop-color="#FF8A00"/>
</linearGradient>
<linearGradient id="paint4_linear_3_1759" x1="10.9807" y1="20.5179" x2="9.43026" y2="23.9188" gradientUnits="userSpaceOnUse">
<stop stop-color="#FFC000"/>
<stop offset="1" stop-color="#FF8A00"/>
</linearGradient>
<linearGradient id="paint5_linear_3_1759" x1="22.0866" y1="11.215" x2="15.6498" y2="13.8584" gradientUnits="userSpaceOnUse">
<stop stop-color="#FFC000"/>
<stop offset="1" stop-color="#FF8A00"/>
</linearGradient>
<linearGradient id="paint6_linear_3_1759" x1="13.4102" y1="18.5333" x2="12.1527" y2="22.2111" gradientUnits="userSpaceOnUse">
<stop stop-color="#FFC000"/>
<stop offset="1" stop-color="#FF8A00"/>
</linearGradient>
<linearGradient id="paint7_linear_3_1759" x1="22.0866" y1="17.1686" x2="15.6498" y2="19.812" gradientUnits="userSpaceOnUse">
<stop stop-color="#FFC000"/>
<stop offset="1" stop-color="#FF8A00"/>
</linearGradient>
<linearGradient id="paint8_linear_3_1759" x1="13.4102" y1="24.487" x2="12.1527" y2="28.1648" gradientUnits="userSpaceOnUse">
<stop stop-color="#FFC000"/>
<stop offset="1" stop-color="#FF8A00"/>
</linearGradient>
<linearGradient id="paint9_linear_3_1759" x1="10.9807" y1="26.4715" x2="9.43026" y2="29.8724" gradientUnits="userSpaceOnUse">
<stop stop-color="#FFC000"/>
<stop offset="1" stop-color="#FF8A00"/>
</linearGradient>
<linearGradient id="paint10_linear_3_1759" x1="21.4821" y1="24.0508" x2="16.8455" y2="25.7458" gradientUnits="userSpaceOnUse">
<stop stop-color="#FFC000"/>
<stop offset="1" stop-color="#FF8A00"/>
</linearGradient>
</defs>
</svg>
