<svg width="30" height="24" viewBox="0 0 30 24" fill="none" xmlns="http://www.w3.org/2000/svg">
<path d="M29.2718 19.3324H28.2795V2.56322C28.2795 1.67019 27.6345 0.975586 26.7911 0.975586H2.97679C2.183 0.975586 1.48839 1.67019 1.48839 2.56322V19.3325H0.496112C0.198433 19.3325 0 19.5309 0 19.8286V21.6147C0 22.5573 0.744197 23.3015 1.68683 23.3015H28.081C29.0237 23.3015 29.7679 22.5573 29.7679 21.6147V19.8286C29.7679 19.5309 29.5694 19.3324 29.2718 19.3324ZM2.48068 2.56322C2.48068 2.21595 2.72876 1.96787 2.97679 1.96787H26.7911C27.0392 1.96787 27.2872 2.21595 27.2872 2.56322V19.3325H18.3568C18.208 19.3325 18.1088 19.3821 18.0096 19.4813L17.1661 20.3247H12.6017L11.7583 19.4813C11.659 19.382 11.5598 19.3324 11.411 19.3324H2.48062V2.56322H2.48068ZM28.7756 21.6147C28.7756 22.0116 28.4779 22.3093 28.081 22.3093H1.68683C1.2899 22.3093 0.992224 22.0116 0.992224 21.6147V20.3247H1.98451H11.2125L12.056 21.1681C12.1552 21.2674 12.2544 21.317 12.4033 21.317H17.3646C17.5134 21.317 17.6126 21.2674 17.7118 21.1681L18.5553 20.3247H27.7833H28.7756V21.6147Z" fill="url(#paint0_linear_3_1741)"/>
<circle cx="10.6452" cy="10.9548" r="3.99186" fill="url(#paint1_linear_3_1741)"/>
<path d="M17.3653 5.93607H21.3343C21.632 5.93607 21.8304 5.73764 21.8304 5.43996C21.8304 5.14228 21.632 4.94385 21.3343 4.94385H17.3653C17.0676 4.94385 16.8691 5.14228 16.8691 5.43996C16.8691 5.73764 17.0676 5.93607 17.3653 5.93607Z" fill="url(#paint2_linear_3_1741)"/>
<path d="M17.3653 7.92069H19.8459C20.1436 7.92069 20.342 7.72226 20.342 7.42458C20.342 7.1269 20.1436 6.92847 19.8459 6.92847H17.3653C17.0676 6.92847 16.8691 7.1269 16.8691 7.42458C16.8691 7.7222 17.0676 7.92069 17.3653 7.92069Z" fill="url(#paint3_linear_3_1741)"/>
<path d="M25.7992 6.92847H21.8301C21.5324 6.92847 21.334 7.1269 21.334 7.42458C21.334 7.72226 21.5324 7.92069 21.8301 7.92069H25.7992C26.0968 7.92069 26.2953 7.72226 26.2953 7.42458C26.2953 7.1269 26.0968 6.92847 25.7992 6.92847Z" fill="url(#paint4_linear_3_1741)"/>
<path d="M23.3194 5.93607H25.8C26.0977 5.93607 26.2961 5.73764 26.2961 5.43996C26.2961 5.14228 26.0977 4.94385 25.8 4.94385H23.3194C23.0217 4.94385 22.8232 5.14228 22.8232 5.43996C22.8232 5.73764 23.0217 5.93607 23.3194 5.93607Z" fill="url(#paint5_linear_3_1741)"/>
<path d="M17.3653 9.90604H21.3343C21.632 9.90604 21.8304 9.70761 21.8304 9.40993C21.8304 9.11225 21.632 8.91382 21.3343 8.91382H17.3653C17.0676 8.91382 16.8691 9.11225 16.8691 9.40993C16.8691 9.70761 17.0676 9.90604 17.3653 9.90604Z" fill="url(#paint6_linear_3_1741)"/>
<path d="M17.3653 11.8898H19.8459C20.1436 11.8898 20.342 11.6914 20.342 11.3937C20.342 11.096 20.1436 10.8976 19.8459 10.8976H17.3653C17.0676 10.8976 16.8691 11.096 16.8691 11.3937C16.8691 11.6914 17.0676 11.8898 17.3653 11.8898Z" fill="url(#paint7_linear_3_1741)"/>
<path d="M25.7992 10.8976H21.8301C21.5324 10.8976 21.334 11.096 21.334 11.3937C21.334 11.6914 21.5324 11.8898 21.8301 11.8898H25.7992C26.0968 11.8898 26.2953 11.6914 26.2953 11.3937C26.2953 11.096 26.0968 10.8976 25.7992 10.8976Z" fill="url(#paint8_linear_3_1741)"/>
<path d="M25.8 8.91382H23.3194C23.0217 8.91382 22.8232 9.11225 22.8232 9.40993C22.8232 9.70761 23.0217 9.90604 23.3194 9.90604H25.8C26.0977 9.90604 26.2961 9.70761 26.2961 9.40993C26.2961 9.11225 26.0977 8.91382 25.8 8.91382Z" fill="url(#paint9_linear_3_1741)"/>
<path d="M17.3653 13.8744H21.3343C21.632 13.8744 21.8304 13.676 21.8304 13.3783C21.8304 13.0806 21.632 12.8822 21.3343 12.8822H17.3653C17.0676 12.8822 16.8691 13.0806 16.8691 13.3783C16.8691 13.676 17.0676 13.8744 17.3653 13.8744Z" fill="url(#paint10_linear_3_1741)"/>
<path d="M17.3653 15.8589H19.8459C20.1436 15.8589 20.342 15.6605 20.342 15.3628C20.342 15.0651 20.1436 14.8667 19.8459 14.8667H17.3653C17.0676 14.8667 16.8691 15.0651 16.8691 15.3628C16.8691 15.6605 17.0676 15.8589 17.3653 15.8589Z" fill="url(#paint11_linear_3_1741)"/>
<path d="M25.7992 14.8667H21.8301C21.5324 14.8667 21.334 15.0651 21.334 15.3628C21.334 15.6605 21.5324 15.8589 21.8301 15.8589H25.7992C26.0968 15.8589 26.2953 15.6605 26.2953 15.3628C26.2953 15.0651 26.0968 14.8667 25.7992 14.8667Z" fill="url(#paint12_linear_3_1741)"/>
<path d="M25.8 12.8822H23.3194C23.0217 12.8822 22.8232 13.0806 22.8232 13.3783C22.8232 13.676 23.0217 13.8744 23.3194 13.8744H25.8C26.0977 13.8744 26.2961 13.676 26.2961 13.3783C26.2961 13.0806 26.0977 12.8822 25.8 12.8822Z" fill="url(#paint13_linear_3_1741)"/>
<defs>
<linearGradient id="paint0_linear_3_1741" x1="29.3809" y1="1.51551" x2="-2.08313" y2="13.8805" gradientUnits="userSpaceOnUse">
<stop stop-color="#FFC000"/>
<stop offset="1" stop-color="#FF8A00"/>
</linearGradient>
<linearGradient id="paint1_linear_3_1741" x1="14.5333" y1="7.15597" x2="5.57002" y2="9.7978" gradientUnits="userSpaceOnUse">
<stop stop-color="#FFC000"/>
<stop offset="1" stop-color="#FF8A00"/>
</linearGradient>
<linearGradient id="paint2_linear_3_1741" x1="21.7659" y1="4.96784" x2="19.8574" y2="7.78059" gradientUnits="userSpaceOnUse">
<stop stop-color="#FFC000"/>
<stop offset="1" stop-color="#FF8A00"/>
</linearGradient>
<linearGradient id="paint3_linear_3_1741" x1="20.2969" y1="6.95246" x2="18.244" y2="9.07028" gradientUnits="userSpaceOnUse">
<stop stop-color="#FFC000"/>
<stop offset="1" stop-color="#FF8A00"/>
</linearGradient>
<linearGradient id="paint4_linear_3_1741" x1="26.2308" y1="6.95246" x2="24.3222" y2="9.76521" gradientUnits="userSpaceOnUse">
<stop stop-color="#FFC000"/>
<stop offset="1" stop-color="#FF8A00"/>
</linearGradient>
<linearGradient id="paint5_linear_3_1741" x1="26.251" y1="4.96784" x2="24.1981" y2="7.08567" gradientUnits="userSpaceOnUse">
<stop stop-color="#FFC000"/>
<stop offset="1" stop-color="#FF8A00"/>
</linearGradient>
<linearGradient id="paint6_linear_3_1741" x1="21.7659" y1="8.93781" x2="19.8574" y2="11.7506" gradientUnits="userSpaceOnUse">
<stop stop-color="#FFC000"/>
<stop offset="1" stop-color="#FF8A00"/>
</linearGradient>
<linearGradient id="paint7_linear_3_1741" x1="20.2969" y1="10.9216" x2="18.244" y2="13.0394" gradientUnits="userSpaceOnUse">
<stop stop-color="#FFC000"/>
<stop offset="1" stop-color="#FF8A00"/>
</linearGradient>
<linearGradient id="paint8_linear_3_1741" x1="26.2308" y1="10.9216" x2="24.3222" y2="13.7343" gradientUnits="userSpaceOnUse">
<stop stop-color="#FFC000"/>
<stop offset="1" stop-color="#FF8A00"/>
</linearGradient>
<linearGradient id="paint9_linear_3_1741" x1="26.251" y1="8.93781" x2="24.1981" y2="11.0556" gradientUnits="userSpaceOnUse">
<stop stop-color="#FFC000"/>
<stop offset="1" stop-color="#FF8A00"/>
</linearGradient>
<linearGradient id="paint10_linear_3_1741" x1="21.7659" y1="12.9062" x2="19.8574" y2="15.7189" gradientUnits="userSpaceOnUse">
<stop stop-color="#FFC000"/>
<stop offset="1" stop-color="#FF8A00"/>
</linearGradient>
<linearGradient id="paint11_linear_3_1741" x1="20.2969" y1="14.8907" x2="18.244" y2="17.0085" gradientUnits="userSpaceOnUse">
<stop stop-color="#FFC000"/>
<stop offset="1" stop-color="#FF8A00"/>
</linearGradient>
<linearGradient id="paint12_linear_3_1741" x1="26.2308" y1="14.8907" x2="24.3222" y2="17.7034" gradientUnits="userSpaceOnUse">
<stop stop-color="#FFC000"/>
<stop offset="1" stop-color="#FF8A00"/>
</linearGradient>
<linearGradient id="paint13_linear_3_1741" x1="26.251" y1="12.9062" x2="24.1981" y2="15.024" gradientUnits="userSpaceOnUse">
<stop stop-color="#FFC000"/>
<stop offset="1" stop-color="#FF8A00"/>
</linearGradient>
</defs>
</svg>
