<svg width="39" height="39" viewBox="0 0 39 39" fill="none" xmlns="http://www.w3.org/2000/svg">
<path d="M37.9608 23.5019C36.8104 21.9692 35.6601 21.9692 32.8482 23.4381L27.3522 26.8228C26.5853 27.2699 24.8598 27.3976 23.2621 27.3976C23.5817 26.8228 23.4539 26.1203 22.8787 25.2901C21.8562 23.8212 20.1307 22.9272 18.2774 22.9272H15.785C14.443 22.9272 13.1648 22.544 12.1423 21.7776C9.83634 20.0493 6.23041 21.9299 4.47347 23.0516V21.7138H0V38.3183H4.47347V36.4024H12.7814C14.0595 36.4024 15.4016 36.2747 16.6797 36.147L24.9875 34.8697C25.3071 34.8697 25.6266 34.8058 25.8823 34.7419C26.6492 34.6142 27.3522 34.231 27.9912 33.6562L37.6412 26.0565C38.4081 25.4179 38.5359 24.2683 37.9608 23.5019ZM3.1953 37.041H1.27809V22.991H3.1953V23.949V36.4024V37.041ZM36.8743 25.2263L27.1604 32.7622L27.0966 32.826C26.6492 33.2092 26.2018 33.4646 25.6906 33.5285H25.6267C25.3711 33.5924 25.1794 33.5924 24.9237 33.5924L16.488 34.8697C15.2738 35.0613 13.9956 35.1251 12.7814 35.1251H4.47347V24.5876C6.00724 23.5019 9.58605 21.4583 11.3754 22.8633C12.5896 23.7574 14.1234 24.2682 15.785 24.2682H18.2774C19.7473 24.2682 21.0893 24.9068 21.9201 26.1842C22.1757 26.5673 22.2396 26.9505 22.1757 27.0783C21.984 27.3976 21.2171 27.5253 20.3863 27.5892C20.2086 27.5892 20.0313 27.5892 19.875 27.5892C19.8066 27.5892 19.7417 27.5892 19.6833 27.5892H13.6761C11.695 27.5892 10.4807 28.5472 10.4807 30.1437C10.4807 30.5269 10.7363 30.7823 11.1197 30.7823C11.5032 30.7823 11.7588 30.5269 11.7588 30.1437C11.7588 29.8244 11.7588 28.8664 13.676 28.8664H19.6194C19.6936 28.8664 19.7778 28.8664 19.875 28.8664C20.0286 28.8664 20.2152 28.8664 20.4501 28.8664C20.514 28.8664 20.6418 28.8664 20.7697 28.8664C23.7733 28.9303 26.5852 28.8664 28.0551 28.1001L33.5511 24.7153C36.2352 23.3741 36.4908 23.6935 37.0021 24.4598C37.1299 24.6515 37.1299 25.0347 36.8743 25.2263Z" fill="url(#paint0_linear_3_1736)"/>
<path d="M28.7574 7.66338C30.1634 7.66338 31.3137 6.51383 31.3137 5.10885C31.3137 3.70387 30.1634 2.55432 28.7574 2.55432C27.3515 2.55432 26.2012 3.70387 26.2012 5.10885C26.2012 6.51383 27.3514 7.66338 28.7574 7.66338ZM28.7574 3.83155C29.4604 3.83155 30.0356 4.40632 30.0356 5.10885C30.0356 5.81138 29.4604 6.38615 28.7574 6.38615C28.0544 6.38615 27.4793 5.81138 27.4793 5.10885C27.4793 4.40632 28.0544 3.83155 28.7574 3.83155Z" fill="url(#paint1_linear_3_1736)"/>
<path d="M13.4199 19.8616C13.4838 20.1809 13.7395 20.3725 14.059 20.3725H17.2543C17.6378 20.3725 17.8934 20.1171 17.9573 19.8616V17.9457H20.5136C20.897 17.9457 21.1526 17.6903 21.1526 17.3071V15.3912H23.0698C23.4533 15.3912 23.7089 15.1357 23.7089 14.7525V12.8366H25.6261C25.8178 12.8366 26.0095 12.7089 26.1374 12.5812C26.1374 12.5812 26.6682 11.9543 27.1428 11.4129C27.4598 11.4662 27.7854 11.4955 28.1186 11.4955C31.3139 11.4955 33.8702 8.94096 33.8702 5.74774C33.8702 2.55453 31.3139 0 28.1186 0C24.9232 0 22.3669 2.55453 22.3669 5.74774C22.3669 6.12494 22.4038 6.49278 22.4719 6.84895L12.9725 16.0936C12.7808 16.2214 12.7169 16.4768 12.7808 16.6684L13.4199 19.8616ZM28.1185 1.27723C30.6109 1.27723 32.5919 3.25698 32.5919 5.74767C32.5919 8.23836 30.6109 10.2181 28.1185 10.2181C27.726 10.2181 27.3463 10.1688 26.9849 10.0764C25.4106 9.61871 24.2164 8.41468 23.8367 6.89722C23.8187 6.84303 23.7896 6.78922 23.7539 6.73788C23.6834 6.41974 23.645 6.08872 23.645 5.74767C23.645 3.25698 25.6261 1.27723 28.1185 1.27723ZM22.8781 8.17452C23.0102 8.45315 23.1668 8.71756 23.343 8.96768C23.3447 8.97022 23.3466 8.97277 23.3483 8.97531C23.3669 9.00173 23.3854 9.02837 23.4045 9.05449C23.9748 9.86823 24.7507 10.5251 25.6603 10.9514C25.4852 11.1325 25.3636 11.3106 25.2427 11.4315H23.0059C22.6224 11.4315 22.3668 11.6869 22.3668 12.0701V13.986H20.4496C20.0662 13.986 19.8106 14.2415 19.8106 14.6246V16.5406H17.2543C16.8709 16.5406 16.6153 16.796 16.6153 17.1792V19.0951H14.5702L14.1229 16.796L22.8781 8.17452Z" fill="url(#paint2_linear_3_1736)"/>
<defs>
<linearGradient id="paint0_linear_3_1736" x1="37.8201" y1="21.4949" x2="5.10354" y2="42.9272" gradientUnits="userSpaceOnUse">
<stop stop-color="#FFC000"/>
<stop offset="1" stop-color="#FF8A00"/>
</linearGradient>
<linearGradient id="paint1_linear_3_1736" x1="31.2472" y1="2.67788" x2="25.5081" y2="4.37059" gradientUnits="userSpaceOnUse">
<stop stop-color="#FFC000"/>
<stop offset="1" stop-color="#FF8A00"/>
</linearGradient>
<linearGradient id="paint2_linear_3_1736" x1="33.5957" y1="0.492684" x2="10.0315" y2="7.69061" gradientUnits="userSpaceOnUse">
<stop stop-color="#FFC000"/>
<stop offset="1" stop-color="#FF8A00"/>
</linearGradient>
</defs>
</svg>
