<svg width="41" height="37" viewBox="0 0 41 37" fill="none" xmlns="http://www.w3.org/2000/svg">
<circle cx="18.4614" cy="17.7275" r="17.5" fill="url(#paint0_linear_1_223)"/>
<path d="M26.4615 13.7795C22.3247 13.7795 18.9591 17.1452 18.9591 21.282C18.9591 22.975 19.5142 24.5747 20.5637 25.9073C20.7709 26.1711 20.9885 26.4236 21.219 26.6909L21.2317 26.7056C21.9367 27.5236 22.6657 28.3697 22.938 29.366C22.9995 29.5943 23.0082 30.0321 23.0047 30.3693V30.9424C23.0047 31.4669 23.4299 31.8921 23.9544 31.8921H28.9273C29.4518 31.8921 29.877 31.4669 29.877 30.9424V30.3626C29.8739 29.9222 29.8967 29.6008 29.9426 29.434C30.2164 28.4443 31.0243 27.4939 31.7435 26.6481L31.7746 26.6116C31.9821 26.3677 32.1782 26.1374 32.3568 25.9103C33.4078 24.577 33.9633 22.9765 33.9633 21.282C33.9632 17.1452 30.5979 13.7795 26.4615 13.7795ZM30.8642 24.7355C30.7078 24.9344 30.5235 25.1511 30.3282 25.3804L30.29 25.4254C29.4498 26.4136 28.4976 27.5336 28.1116 28.9288C28.057 29.1268 27.9964 29.4231 27.9809 29.9927H24.9023C24.8892 29.3878 24.8275 29.0776 24.7712 28.8686C24.3849 27.4549 23.4344 26.3519 22.6704 25.4654L22.6576 25.4504C22.4417 25.2001 22.2378 24.9635 22.0566 24.7331C21.2728 23.7378 20.8585 22.5443 20.8585 21.282C20.8585 18.1925 23.372 15.679 26.4615 15.679C29.5506 15.679 32.0638 18.1925 32.0638 21.282C32.0638 22.5457 31.6492 23.7396 30.8642 24.7355Z" fill="white"/>
<path d="M28.9271 32.1619H23.9543C23.4299 32.1619 23.0046 32.5871 23.0046 33.1116C23.0046 33.6361 23.4299 34.0613 23.9543 34.0613H28.9273C29.4518 34.0613 29.877 33.6361 29.877 33.1116C29.877 32.5871 29.4516 32.1619 28.9271 32.1619Z" fill="white"/>
<path d="M27.6838 34.3281H25.1975C24.673 34.3281 24.2478 34.7533 24.2478 35.2778C24.2478 35.8023 24.673 36.2275 25.1975 36.2275H27.6838C28.2083 36.2275 28.6336 35.8023 28.6336 35.2778C28.6336 34.7533 28.2083 34.3281 27.6838 34.3281Z" fill="white"/>
<path d="M39.5658 20.3323H36.2896C35.7651 20.3323 35.3398 20.7575 35.3398 21.282C35.3398 21.8065 35.7651 22.2317 36.2896 22.2317H39.5658C40.0903 22.2317 40.5155 21.8065 40.5155 21.282C40.5155 20.7575 40.0903 20.3323 39.5658 20.3323Z" fill="white"/>
<path d="M17.5828 21.282C17.5828 20.7575 17.1576 20.3323 16.6331 20.3323H13.3564C12.832 20.3323 12.4067 20.7575 12.4067 21.282C12.4067 21.8065 12.832 22.2317 13.3564 22.2317H16.6331C17.1576 22.2317 17.5828 21.8065 17.5828 21.282Z" fill="white"/>
<path d="M26.4611 12.4042C26.9856 12.4042 27.4108 11.979 27.4108 11.4545V8.17725C27.4108 7.65275 26.9856 7.22754 26.4611 7.22754C25.9366 7.22754 25.5114 7.65275 25.5114 8.17725V11.4545C25.5114 11.979 25.9366 12.4042 26.4611 12.4042Z" fill="white"/>
<path d="M34.0825 27.56C33.7116 27.1891 33.1104 27.189 32.7394 27.5598C32.3685 27.9307 32.3683 28.532 32.7392 28.903L35.056 31.2204C35.2415 31.4059 35.4845 31.4986 35.7276 31.4986C35.9706 31.4986 36.2136 31.4059 36.3991 31.2205C36.77 30.8496 36.7702 30.2484 36.3993 29.8774L34.0825 27.56Z" fill="white"/>
<path d="M18.8395 15.0033C19.0251 15.1888 19.268 15.2816 19.5112 15.2816C19.7542 15.2816 19.9972 15.1889 20.1826 15.0035C20.5536 14.6326 20.5536 14.0314 20.1828 13.6605L17.8669 11.3437C17.496 10.9727 16.8948 10.9727 16.5239 11.3435C16.1529 11.7144 16.1529 12.3156 16.5236 12.6865L18.8395 15.0033Z" fill="white"/>
<path d="M18.8406 27.5599L16.5237 29.8773C16.1528 30.2482 16.1529 30.8496 16.5238 31.2203C16.7092 31.4057 16.9523 31.4984 17.1953 31.4984C17.4383 31.4984 17.6814 31.4057 17.8669 31.2202L20.1838 28.9028C20.5547 28.5319 20.5546 27.9306 20.1837 27.5598C19.8128 27.189 19.2114 27.189 18.8406 27.5599Z" fill="white"/>
<path d="M33.4111 15.2814C33.6541 15.2814 33.8972 15.1888 34.0827 15.0032L36.399 12.6866C36.7699 12.3157 36.7697 11.7143 36.3988 11.3436C36.028 10.9727 35.4266 10.9727 35.0558 11.3437L32.7396 13.6604C32.3687 14.0313 32.3688 14.6326 32.7397 15.0034C32.9249 15.1889 33.1679 15.2814 33.4111 15.2814Z" fill="white"/>
<defs>
<linearGradient id="paint0_linear_1_223" x1="35.5064" y1="1.07397" x2="-3.78767" y2="12.6556" gradientUnits="userSpaceOnUse">
<stop stop-color="#FFC000"/>
<stop offset="1" stop-color="#FF8A00"/>
</linearGradient>
</defs>
</svg>
