<svg width="79" height="79" viewBox="0 0 79 79" fill="none" xmlns="http://www.w3.org/2000/svg">
<rect x="0.438445" y="0.438445" width="78.0432" height="78.0432" rx="25.8682" stroke="url(#paint0_linear_752_55)" stroke-width="0.87689"/>
<path d="M31.198 20.6069H48.2879C51.5219 20.6069 54.1954 21.74 56.0614 23.6903C57.929 25.6422 59.0193 28.4463 59.0193 31.8427V47.9562C59.0193 51.3516 57.9285 54.1551 56.0605 56.1069C54.194 58.0569 51.5199 59.19 48.2859 59.19H31.198C27.964 59.19 25.291 58.0569 23.4255 56.1069C21.5584 54.1553 20.4686 51.3517 20.4686 47.9562V31.8427C20.4686 28.4462 21.5585 25.6422 23.4255 23.6902C25.291 21.74 27.964 20.6069 31.198 20.6069Z" fill="url(#paint1_linear_752_55)" stroke="url(#paint2_linear_752_55)" stroke-width="0.87689"/>
<path d="M37.9709 38.5417L38.0644 38.8546H38.3909H49.6278C50.1936 38.8546 50.6679 39.3288 50.6679 39.8959V43.546C50.6679 44.129 50.1974 44.5873 49.6278 44.5873C49.0423 44.5873 48.5877 44.1328 48.5877 43.546V41.3757V40.9372H48.1493H45.5273H45.0889V41.3757V43.546C45.0889 44.129 44.6184 44.5873 44.0488 44.5873C43.4633 44.5873 43.0087 44.1328 43.0087 43.546V41.3757V40.9372H42.5703H38.3909H38.0644L37.9709 41.2501C37.3931 43.1837 35.626 44.5873 33.5216 44.5873C30.9231 44.5873 28.8148 42.493 28.8148 39.8959C28.8148 37.3174 30.9242 35.2046 33.5216 35.2046C35.626 35.2046 37.3931 36.6082 37.9709 38.5417ZM33.5216 37.2872C32.0818 37.2872 30.895 38.4454 30.895 39.8959C30.895 41.3464 32.0818 42.5047 33.5216 42.5047C34.9444 42.5047 36.1286 41.3438 36.1286 39.8959C36.1286 38.448 34.9444 37.2872 33.5216 37.2872Z" fill="white" stroke="url(#paint3_linear_752_55)" stroke-width="0.87689"/>
<defs>
<linearGradient id="paint0_linear_752_55" x1="77.8941" y1="1.90858" x2="-10.7085" y2="28.0235" gradientUnits="userSpaceOnUse">
<stop stop-color="#FFC000"/>
<stop offset="1" stop-color="#FF8A00"/>
</linearGradient>
<linearGradient id="paint1_linear_752_55" x1="58.9452" y1="21.1227" x2="14.6745" y2="34.1604" gradientUnits="userSpaceOnUse">
<stop stop-color="#FFC000"/>
<stop offset="1" stop-color="#FF8A00"/>
</linearGradient>
<linearGradient id="paint2_linear_752_55" x1="58.9452" y1="21.1227" x2="14.6745" y2="34.1604" gradientUnits="userSpaceOnUse">
<stop stop-color="#FFC000"/>
<stop offset="1" stop-color="#FF8A00"/>
</linearGradient>
<linearGradient id="paint3_linear_752_55" x1="50.8108" y1="35.0142" x2="31.3664" y2="47.7113" gradientUnits="userSpaceOnUse">
<stop stop-color="#FFC000"/>
<stop offset="1" stop-color="#FF8A00"/>
</linearGradient>
</defs>
</svg>
