<svg width="30" height="34" viewBox="0 0 30 34" fill="none" xmlns="http://www.w3.org/2000/svg">
<path d="M28.7929 20.7418L20.3471 12.3162C20.982 11.2112 21.3003 9.9703 21.3003 8.72895C21.3003 4.77801 18.0357 1.52118 14.0754 1.52118C13.1258 1.52118 12.2184 1.68975 11.353 2.0632C10.2238 1.38099 8.90203 0.987305 7.49257 0.987305C3.37168 0.987305 0 4.35093 0 8.46198C0 11.2141 1.5111 13.6309 3.74628 14.9282V30.0852C3.74628 30.2453 3.79978 30.4055 3.96033 30.5123L7.17146 33.1818C7.22496 33.2352 7.38551 33.2886 7.49257 33.2886C7.59963 33.2886 7.76018 33.2352 7.76018 33.1818L10.9713 30.5123C11.1319 30.4055 11.1854 30.2453 11.1854 30.0852V29.0173C11.1854 28.8572 11.1319 28.7504 11.0248 28.6436L9.25872 26.8818L10.7573 25.3868C10.9713 25.1733 10.9713 24.8529 10.7573 24.6393L9.25872 23.1444L9.68593 22.7182L18.2498 31.3131C18.678 31.6868 19.1597 31.9004 19.6948 31.9538C19.6948 31.9538 19.7483 31.9538 19.8019 31.9538C20.337 31.9538 20.8187 31.7936 21.1399 31.4199L28.9 23.6249C29.7027 22.8775 29.5957 21.5427 28.7929 20.7418ZM14.0754 2.589C17.4471 2.589 20.23 5.36532 20.23 8.72895C20.23 9.70116 19.9944 10.6729 19.5513 11.5392C18.9142 11.0001 18.1462 10.6783 17.3401 10.5442L14.8054 10.1611C14.9314 9.59474 14.9853 9.02836 14.9853 8.46204C14.9853 6.22164 13.9838 4.20342 12.4055 2.8304C12.9497 2.67405 13.5019 2.589 14.0754 2.589ZM1.07038 8.46198C1.07038 4.93818 3.9604 2.05512 7.49257 2.05512C11.0247 2.05512 13.9148 4.93824 13.9148 8.46198C13.9148 8.97366 13.8645 9.48527 13.7191 9.99689L10.2755 9.47637C9.51683 9.39227 8.79192 9.54106 8.20416 9.92062C8.12382 9.51619 8.08129 9.09999 8.08129 8.67552C8.08129 8.57654 8.08129 8.47763 8.08129 8.37865C8.97472 8.12186 9.63332 7.29735 9.63332 6.32634C9.63332 5.15172 8.67 4.1907 7.49257 4.1907C6.31514 4.1907 5.35182 5.15172 5.35182 6.32634C5.35182 7.32037 6.04185 8.16129 6.96762 8.3964C6.95773 8.50307 6.95741 8.60739 6.95741 8.72895C6.95741 9.47599 7.07034 10.2078 7.2833 10.9043C7.04827 11.32 6.9182 11.7936 6.91743 12.2933C6.91386 12.4726 6.92655 12.6553 6.95741 12.84L7.15807 14.1079L7.27361 14.8686C3.85066 14.7593 1.07038 11.9307 1.07038 8.46198ZM8.56295 6.32634C8.56295 6.62124 8.44135 6.8891 8.24592 7.08285C8.32237 6.77053 8.42388 6.46692 8.55077 6.17431C8.55797 6.22412 8.56295 6.27462 8.56295 6.32634ZM7.12823 7.3287C6.71779 7.17903 6.42226 6.78598 6.42226 6.32634C6.42226 5.73903 6.90392 5.25852 7.49263 5.25852C7.60269 5.25852 7.70898 5.27538 7.80908 5.30648C7.49251 5.94315 7.26532 6.62194 7.12823 7.3287ZM9.68682 25.0131L8.18828 26.5081C7.97423 26.7216 7.97423 27.0419 8.18828 27.2555L10.1685 29.231V29.8183L7.49257 32.0607L4.81666 29.8183H4.87016V15.7231C5.19394 15.8523 5.53539 15.955 5.88704 16.0321V28.8572C5.88704 29.1776 6.10109 29.3911 6.42219 29.3911C6.7433 29.3911 6.95735 29.1241 6.95735 28.8572V16.1849C7.12983 16.1968 7.303 16.2031 7.47631 16.2034L8.02773 19.8342C8.04233 19.9214 8.06044 20.0079 8.0802 20.0942L8.08122 20.1011C8.18828 20.7952 8.45583 21.4893 8.88399 22.0766L8.18828 22.7706C7.97423 22.9842 7.97423 23.3045 8.18828 23.5181L9.68682 25.0131ZM28.1507 22.8775L20.3905 30.6191C20.23 30.7793 20.0159 30.8326 19.7483 30.8326C19.4807 30.8326 19.2131 30.7258 18.999 30.5123L10.115 21.6495C9.57983 21.1156 9.20516 20.4215 9.0981 19.674L8.45079 15.4119C8.4557 15.3571 8.45589 15.2999 8.45589 15.2426L8.08792 12.6732C8.72739 13.6975 9.6191 14.5728 10.7133 15.2048C10.7071 15.27 10.7036 15.336 10.7036 15.4028C10.7036 16.5774 11.667 17.5384 12.8444 17.5384C14.0218 17.5384 14.9851 16.5774 14.9851 15.4028C14.9851 14.2282 14.0218 13.2671 12.8444 13.2671C12.1504 13.2671 11.531 13.6012 11.1393 14.1159C9.9559 13.3768 9.06195 12.3188 8.5551 11.0865C8.55778 11.0838 8.56027 11.0808 8.56295 11.0781C8.69283 10.9486 8.84892 10.8388 9.0214 10.7544C9.26146 10.65 9.51893 10.5976 9.79388 10.5976C9.90093 10.5976 10.0079 10.5976 10.0615 10.5976L10.7451 10.701L14.0219 11.2384C14.081 11.2384 14.1373 11.2328 14.1907 11.2218L17.126 11.6655C17.8752 11.7723 18.5709 12.146 19.1062 12.68L28.0437 21.5428C28.4183 21.9164 28.4718 22.5571 28.1507 22.8775ZM13.6033 16.1537C13.4091 16.349 13.1403 16.4706 12.8444 16.4706C12.3678 16.4706 11.9615 16.1555 11.8241 15.724C12.3979 15.9361 12.9965 16.0826 13.6033 16.1537ZM12.1239 14.6165C12.3146 14.4424 12.5672 14.335 12.8445 14.335C13.3086 14.335 13.7052 14.6342 13.8527 15.0486C13.2646 14.9878 12.6927 14.8438 12.1239 14.6165Z" fill="url(#paint0_linear_3_1729)"/>
<path d="M22.8543 24.1053L19.4291 27.5223C19.215 27.7359 19.215 28.0562 19.4291 28.2698C19.5361 28.3766 19.6431 28.43 19.8037 28.43C19.9642 28.43 20.0713 28.3766 20.1783 28.2698L23.6035 24.8528C23.8175 24.6393 23.8175 24.3189 23.6035 24.1053C23.3895 23.8918 23.0684 23.8918 22.8543 24.1053Z" fill="url(#paint1_linear_3_1729)"/>
<path d="M20.8207 24.1053C20.6067 23.8918 20.2855 23.8918 20.0714 24.1053L17.8236 26.3478C17.6096 26.5613 17.6096 26.8817 17.8236 27.0953C17.9307 27.2021 18.0377 27.2554 18.1982 27.2554C18.3588 27.2554 18.4658 27.2021 18.5728 27.1486L20.8206 24.8528C21.0348 24.6392 21.0348 24.3189 20.8207 24.1053Z" fill="url(#paint2_linear_3_1729)"/>
<path d="M20.3926 21.4366C20.1786 21.2231 19.8574 21.2231 19.6433 21.4366L16.2182 24.8536C16.0041 25.0672 16.0041 25.3875 16.2182 25.6011C16.3252 25.7079 16.4322 25.7613 16.5928 25.7613C16.7533 25.7613 16.8604 25.7079 16.9674 25.6011L20.3925 22.1841C20.6067 21.9705 20.6067 21.6502 20.3926 21.4366Z" fill="url(#paint3_linear_3_1729)"/>
<defs>
<linearGradient id="paint0_linear_3_1729" x1="29.0683" y1="1.76847" x2="-4.44808" y2="10.7755" gradientUnits="userSpaceOnUse">
<stop stop-color="#FFC000"/>
<stop offset="1" stop-color="#FF8A00"/>
</linearGradient>
<linearGradient id="paint1_linear_3_1729" x1="23.7056" y1="24.0536" x2="18.6605" y2="25.5442" gradientUnits="userSpaceOnUse">
<stop stop-color="#FFC000"/>
<stop offset="1" stop-color="#FF8A00"/>
</linearGradient>
<linearGradient id="paint2_linear_3_1729" x1="20.9381" y1="24.0252" x2="17.2143" y2="25.1254" gradientUnits="userSpaceOnUse">
<stop stop-color="#FFC000"/>
<stop offset="1" stop-color="#FF8A00"/>
</linearGradient>
<linearGradient id="paint3_linear_3_1729" x1="20.4947" y1="21.3849" x2="15.4496" y2="22.8755" gradientUnits="userSpaceOnUse">
<stop stop-color="#FFC000"/>
<stop offset="1" stop-color="#FF8A00"/>
</linearGradient>
</defs>
</svg>
